<svg xmlns="http://www.w3.org/2000/svg" width="256" height="256" viewBox="0 0 100 100"><rect width="100" height="100" rx="20" fill="#004657"></rect><path d="M44.60 27.82L44.60 27.82Q44.60 31.69 42.76 34.97Q40.91 38.26 36.59 40.06L36.59 40.06Q41.72 41.77 44.24 45.41Q46.76 49.05 46.76 53.65L46.76 53.65Q46.76 61.84 40.87 65.80Q34.97 69.75 24.08 69.75L24.08 69.75Q20.30 69.75 16.75 69.44Q13.19 69.13 9.95 68.22L9.95 68.22Q6.17 67.14 6.17 64.09L6.17 64.09L6.17 18.01Q6.17 15.40 9.14 14.59L9.14 14.59Q12.20 13.69 15.62 13.37Q19.04 13.05 23.09 13.05L23.09 13.05Q33.26 13.05 38.93 16.66Q44.60 20.26 44.60 27.82ZM25.61 43.30L13.37 43.30L13.37 62.73Q15.53 63.19 18.37 63.45Q21.20 63.73 24.08 63.73L24.08 63.73Q31.55 63.73 35.42 61.25Q39.29 58.77 39.29 53.47L39.29 53.47Q39.29 48.78 35.83 46.04Q32.36 43.30 25.61 43.30L25.61 43.30ZM13.37 19.90L13.37 37.36L25.61 37.36Q31.28 37.36 34.21 34.84Q37.13 32.32 37.13 28.00L37.13 28.00Q37.13 19.09 23.09 19.09L23.09 19.09Q19.94 19.09 17.65 19.31Q15.35 19.54 13.37 19.90L13.37 19.90ZM86.63 70.11L86.63 64.44Q85.10 65.70 82.45 66.61Q79.79 67.50 76.10 67.50L76.10 67.50Q72.14 67.50 68.63 66.38Q65.12 65.25 62.47 62.78Q59.81 60.30 58.24 56.34Q56.66 52.39 56.66 46.72L56.66 46.72Q56.66 41.59 58.19 37.72Q59.72 33.84 62.47 31.23Q65.21 28.63 68.99 27.32Q72.77 26.02 77.36 26.02L77.36 26.02Q81.50 26.02 84.97 27.05Q88.43 28.09 90.77 29.62L90.77 29.62Q92.12 30.52 92.98 31.64Q93.83 32.77 93.83 34.39L93.83 34.39L93.83 70.56Q93.83 75.06 92.34 78.17Q90.86 81.28 88.21 83.21Q85.55 85.14 81.95 86.05Q78.35 86.94 74.21 86.94L74.21 86.94Q69.62 86.94 66.43 86Q63.23 85.06 62.06 84.34L62.06 84.34Q59.36 82.81 59.36 80.47L59.36 80.47Q59.36 79.20 59.95 78.35Q60.53 77.50 61.43 77.05L61.43 77.05Q63.32 78.48 66.74 79.70Q70.16 80.92 74.21 80.92L74.21 80.92Q80.24 80.92 83.44 78.35Q86.63 75.78 86.63 70.11L86.63 70.11ZM76.91 61.56L76.91 61.56Q80.51 61.56 82.81 60.44Q85.10 59.31 86.63 57.88L86.63 57.88L86.63 34.48Q85.10 33.48 82.81 32.72Q80.51 31.96 77.36 31.96L77.36 31.96Q71.24 31.96 67.59 35.65Q63.95 39.34 63.95 46.63L63.95 46.63Q63.95 50.67 64.94 53.51Q65.93 56.34 67.69 58.15Q69.44 59.95 71.83 60.76Q74.21 61.56 76.91 61.56Z" fill="#fff"></path></svg>