<svg xmlns="http://www.w3.org/2000/svg" width="256" height="256" viewBox="0 0 100 100"><rect width="100" height="100" rx="50" fill="#01617b"></rect><path d="M23.60 40.40L23.60 40.40Q23.60 42.21 22.74 43.74Q21.88 45.28 19.86 46.12L19.86 46.12Q22.26 46.91 23.43 48.61Q24.61 50.32 24.61 52.46L24.61 52.46Q24.61 56.28 21.86 58.13Q19.11 59.98 14.03 59.98L14.03 59.98Q12.26 59.98 10.60 59.83Q8.94 59.68 7.43 59.26L7.43 59.26Q5.67 58.76 5.67 57.33L5.67 57.33L5.67 35.83Q5.67 34.61 7.05 34.23L7.05 34.23Q8.48 33.81 10.08 33.66Q11.67 33.52 13.56 33.52L13.56 33.52Q18.31 33.52 20.96 35.20Q23.60 36.88 23.60 40.40ZM14.74 47.63L9.03 47.63L9.03 56.70Q10.04 56.91 11.36 57.04Q12.68 57.16 14.03 57.16L14.03 57.16Q17.51 57.16 19.32 56.01Q21.13 54.85 21.13 52.37L21.13 52.37Q21.13 50.19 19.51 48.91Q17.89 47.63 14.74 47.63L14.74 47.63ZM9.03 36.71L9.03 44.86L14.74 44.86Q17.39 44.86 18.75 43.68Q20.12 42.50 20.12 40.49L20.12 40.49Q20.12 36.33 13.56 36.33L13.56 36.33Q12.09 36.33 11.02 36.43Q9.95 36.54 9.03 36.71L9.03 36.71ZM43.22 60.14L43.22 57.50Q42.50 58.09 41.26 58.51Q40.02 58.93 38.30 58.93L38.30 58.93Q36.45 58.93 34.82 58.40Q33.18 57.88 31.94 56.72Q30.70 55.57 29.97 53.72Q29.23 51.87 29.23 49.22L29.23 49.22Q29.23 46.83 29.95 45.02Q30.66 43.22 31.94 42.00Q33.22 40.78 34.98 40.17Q36.75 39.56 38.89 39.56L38.89 39.56Q40.82 39.56 42.44 40.05Q44.06 40.53 45.15 41.24L45.15 41.24Q45.78 41.66 46.18 42.19Q46.58 42.71 46.58 43.47L46.58 43.47L46.58 60.35Q46.58 62.45 45.88 63.90Q45.19 65.35 43.95 66.25Q42.71 67.16 41.03 67.58Q39.35 68.00 37.42 68.00L37.42 68.00Q35.28 68.00 33.79 67.56Q32.30 67.12 31.75 66.78L31.75 66.78Q30.49 66.07 30.49 64.97L30.49 64.97Q30.49 64.39 30.76 63.99Q31.04 63.59 31.46 63.38L31.46 63.38Q32.34 64.05 33.94 64.62Q35.53 65.18 37.42 65.18L37.42 65.18Q40.23 65.18 41.73 63.99Q43.22 62.79 43.22 60.14L43.22 60.14ZM38.68 56.15L38.68 56.15Q40.36 56.15 41.43 55.63Q42.50 55.10 43.22 54.43L43.22 54.43L43.22 43.51Q42.50 43.05 41.43 42.69Q40.36 42.34 38.89 42.34L38.89 42.34Q36.03 42.34 34.33 44.06Q32.63 45.78 32.63 49.18L32.63 49.18Q32.63 51.07 33.09 52.39Q33.56 53.72 34.38 54.56Q35.20 55.40 36.31 55.78Q37.42 56.15 38.68 56.15ZM72.03 36.79L72.03 36.79Q72.03 37.38 71.67 37.80Q71.31 38.22 70.85 38.43L70.85 38.43Q69.76 37.67 68.29 37.00Q66.82 36.33 64.47 36.33L64.47 36.33Q62.54 36.33 60.90 37.00Q59.26 37.67 58.04 38.98Q56.83 40.28 56.13 42.25Q55.44 44.23 55.44 46.79L55.44 46.79Q55.44 49.39 56.11 51.32Q56.78 53.26 57.98 54.56Q59.18 55.86 60.86 56.51Q62.54 57.16 64.59 57.16L64.59 57.16Q66.78 57.16 68.40 56.55Q70.01 55.94 71.11 55.10L71.11 55.10Q71.53 55.27 71.90 55.71Q72.28 56.15 72.28 56.74L72.28 56.74Q72.28 57.62 71.27 58.34L71.27 58.34Q70.31 59.01 68.63 59.53Q66.95 60.06 64.34 60.06L64.34 60.06Q61.70 60.06 59.43 59.22Q57.16 58.38 55.50 56.72Q53.84 55.06 52.88 52.58Q51.91 50.11 51.91 46.79L51.91 46.79Q51.91 43.47 52.90 40.97Q53.88 38.47 55.56 36.79Q57.25 35.11 59.49 34.27Q61.74 33.43 64.22 33.43L64.22 33.43Q65.94 33.43 67.39 33.73Q68.84 34.02 69.87 34.50Q70.90 34.98 71.46 35.59Q72.03 36.20 72.03 36.79ZM80.93 59.43L80.93 59.43Q80.72 59.51 80.30 59.62Q79.88 59.72 79.38 59.72L79.38 59.72Q77.57 59.72 77.57 58.21L77.57 58.21L77.57 32.30Q77.78 32.21 78.22 32.11Q78.66 32.00 79.17 32.00L79.17 32.00Q80.93 32.00 80.93 33.52L80.93 33.52L80.93 41.08Q81.94 40.49 83.31 40.03Q84.67 39.56 86.39 39.56L86.39 39.56Q88.16 39.56 89.61 40.03Q91.06 40.49 92.11 41.43Q93.16 42.38 93.74 43.83Q94.33 45.28 94.33 47.21L94.33 47.21L94.33 59.43Q94.12 59.51 93.68 59.62Q93.24 59.72 92.78 59.72L92.78 59.72Q90.97 59.72 90.97 58.21L90.97 58.21L90.97 47.29Q90.97 44.77 89.58 43.55Q88.20 42.34 85.93 42.34L85.93 42.34Q84.46 42.34 83.18 42.86Q81.90 43.39 80.93 44.14L80.93 44.14L80.93 59.43Z" fill="#fff"></path></svg>